<svg xmlns="http://www.w3.org/2000/svg" xmlns:xlink="http://www.w3.org/1999/xlink" width="181" zoomAndPan="magnify" viewBox="0 0 135.75 57.749997" height="77" preserveAspectRatio="xMidYMid meet" version="1.0"><defs><g/><clipPath id="6eb6b78f4e"><path d="M 52 1.492188 L 79 1.492188 L 79 13 L 52 13 Z M 52 1.492188 " clip-rule="nonzero"/></clipPath><clipPath id="72e797eba7"><path d="M 52 30 L 79 30 L 79 41.820312 L 52 41.820312 Z M 52 30 " clip-rule="nonzero"/></clipPath><clipPath id="23b20a7b94"><path d="M 82 18 L 89.773438 18 L 89.773438 21 L 82 21 Z M 82 18 " clip-rule="nonzero"/></clipPath><clipPath id="9f21190093"><path d="M 64.058594 14 L 79.742188 14 L 79.742188 29.675781 L 64.058594 29.675781 Z M 64.058594 14 " clip-rule="nonzero"/></clipPath><clipPath id="32b1b2a32a"><path d="M 64.058594 13.996094 L 79.742188 13.996094 L 79.742188 29.675781 L 64.058594 29.675781 Z M 64.058594 13.996094 " clip-rule="nonzero"/></clipPath></defs><path fill="#232323" d="M 48.097656 8.875 C 46.890625 8.875 45.90625 7.894531 45.90625 6.6875 C 45.90625 5.480469 46.890625 4.5 48.097656 4.5 C 49.308594 4.5 50.292969 5.480469 50.292969 6.6875 C 50.292969 7.894531 49.308594 8.875 48.097656 8.875 Z M 48.097656 5.644531 C 47.523438 5.644531 47.054688 6.113281 47.054688 6.6875 C 47.054688 7.261719 47.523438 7.730469 48.097656 7.730469 C 48.675781 7.730469 49.144531 7.261719 49.144531 6.6875 C 49.144531 6.113281 48.675781 5.644531 48.097656 5.644531 " fill-opacity="1" fill-rule="nonzero"/><path fill="#232323" d="M 47.199219 23.84375 C 45.992188 23.84375 45.007812 22.863281 45.007812 21.65625 C 45.007812 20.449219 45.992188 19.46875 47.199219 19.46875 C 48.410156 19.46875 49.394531 20.449219 49.394531 21.65625 C 49.394531 22.863281 48.410156 23.84375 47.199219 23.84375 Z M 47.199219 20.613281 C 46.625 20.613281 46.15625 21.082031 46.15625 21.65625 C 46.15625 22.230469 46.625 22.699219 47.199219 22.699219 C 47.777344 22.699219 48.246094 22.230469 48.246094 21.65625 C 48.246094 21.082031 47.777344 20.613281 47.199219 20.613281 " fill-opacity="1" fill-rule="nonzero"/><path fill="#232323" d="M 71.523438 31.953125 C 69.222656 31.953125 67.046875 31.214844 65.230469 29.820312 L 65.929688 28.914062 C 67.546875 30.152344 69.480469 30.808594 71.523438 30.808594 C 76.582031 30.808594 80.699219 26.703125 80.699219 21.65625 C 80.699219 16.609375 76.582031 12.503906 71.523438 12.503906 C 69.480469 12.503906 67.546875 13.160156 65.929688 14.398438 L 65.230469 13.492188 C 67.046875 12.097656 69.222656 11.359375 71.523438 11.359375 C 77.214844 11.359375 81.847656 15.976562 81.847656 21.65625 C 81.847656 27.335938 77.214844 31.953125 71.523438 31.953125 " fill-opacity="1" fill-rule="nonzero"/><path fill="#232323" d="M 78.863281 24.527344 L 77.792969 24.109375 C 78.101562 23.328125 78.257812 22.503906 78.257812 21.65625 C 78.257812 19.949219 77.613281 18.324219 76.445312 17.074219 L 77.285156 16.292969 C 78.652344 17.753906 79.40625 19.660156 79.40625 21.65625 C 79.40625 22.648438 79.222656 23.613281 78.863281 24.527344 " fill-opacity="1" fill-rule="nonzero"/><path fill="#232323" d="M 77.285156 27.019531 L 76.445312 26.238281 C 76.679688 25.984375 76.898438 25.714844 77.089844 25.429688 L 78.039062 26.078125 C 77.8125 26.410156 77.558594 26.726562 77.285156 27.019531 " fill-opacity="1" fill-rule="nonzero"/><g clip-path="url(#6eb6b78f4e)"><path fill="#232323" d="M 54.003906 12.808594 L 52.855469 12.808594 L 52.855469 3.492188 C 52.855469 2.390625 53.753906 1.492188 54.859375 1.492188 L 76.691406 1.492188 C 77.796875 1.492188 78.699219 2.390625 78.699219 3.492188 L 78.699219 12.125 L 77.546875 12.125 L 77.546875 3.492188 C 77.546875 3.019531 77.164062 2.636719 76.691406 2.636719 L 54.859375 2.636719 C 54.386719 2.636719 54.003906 3.019531 54.003906 3.492188 L 54.003906 12.808594 " fill-opacity="1" fill-rule="nonzero"/></g><g clip-path="url(#72e797eba7)"><path fill="#232323" d="M 76.691406 41.820312 L 54.859375 41.820312 C 53.753906 41.820312 52.855469 40.921875 52.855469 39.820312 L 52.855469 30.503906 L 54.003906 30.503906 L 54.003906 39.820312 C 54.003906 40.292969 54.386719 40.675781 54.859375 40.675781 L 76.691406 40.675781 C 77.164062 40.675781 77.546875 40.292969 77.546875 39.820312 L 77.546875 31.1875 L 78.699219 31.1875 L 78.699219 39.820312 C 78.699219 40.921875 77.796875 41.820312 76.691406 41.820312 " fill-opacity="1" fill-rule="nonzero"/></g><path fill="#232323" d="M 56.15625 12.808594 L 55.007812 12.808594 L 55.007812 6.3125 C 55.007812 5.996094 55.265625 5.742188 55.582031 5.742188 L 75.96875 5.742188 C 76.285156 5.742188 76.542969 5.996094 76.542969 6.3125 L 76.542969 10.964844 L 75.394531 10.964844 L 75.394531 6.886719 L 56.15625 6.886719 L 56.15625 12.808594 " fill-opacity="1" fill-rule="nonzero"/><path fill="#232323" d="M 75.96875 37.570312 L 55.582031 37.570312 C 55.265625 37.570312 55.007812 37.316406 55.007812 37 L 55.007812 30.503906 L 56.15625 30.503906 L 56.15625 36.425781 L 75.394531 36.425781 L 75.394531 32.359375 L 76.542969 32.359375 L 76.542969 37 C 76.542969 37.316406 76.285156 37.570312 75.96875 37.570312 " fill-opacity="1" fill-rule="nonzero"/><path fill="#232323" d="M 60.027344 39.695312 L 57.109375 39.695312 L 57.109375 38.550781 L 60.027344 38.550781 L 60.027344 39.695312 " fill-opacity="1" fill-rule="nonzero"/><path fill="#232323" d="M 74.441406 39.695312 L 71.523438 39.695312 L 71.523438 38.550781 L 74.441406 38.550781 L 74.441406 39.695312 " fill-opacity="1" fill-rule="nonzero"/><path fill="#232323" d="M 67.234375 39.695312 L 64.316406 39.695312 L 64.316406 38.550781 L 67.234375 38.550781 L 67.234375 39.695312 " fill-opacity="1" fill-rule="nonzero"/><path fill="#232323" d="M 67.640625 4.761719 L 63.910156 4.761719 L 63.910156 3.617188 L 67.640625 3.617188 L 67.640625 4.761719 " fill-opacity="1" fill-rule="nonzero"/><path fill="#232323" d="M 69.089844 4.761719 C 68.9375 4.761719 68.789062 4.699219 68.683594 4.59375 C 68.578125 4.488281 68.515625 4.339844 68.515625 4.1875 C 68.515625 4.039062 68.578125 3.890625 68.683594 3.785156 C 68.789062 3.679688 68.9375 3.617188 69.089844 3.617188 C 69.242188 3.617188 69.390625 3.679688 69.496094 3.785156 C 69.601562 3.890625 69.664062 4.039062 69.664062 4.1875 C 69.664062 4.339844 69.601562 4.488281 69.496094 4.59375 C 69.390625 4.699219 69.242188 4.761719 69.089844 4.761719 " fill-opacity="1" fill-rule="nonzero"/><path fill="#232323" d="M 68.300781 34.421875 L 63.25 34.421875 C 62.933594 34.421875 62.675781 34.164062 62.675781 33.847656 L 62.675781 9.464844 C 62.675781 9.148438 62.933594 8.890625 63.25 8.890625 L 68.300781 8.890625 C 68.617188 8.890625 68.875 9.148438 68.875 9.464844 L 68.875 10.855469 L 67.726562 10.855469 L 67.726562 10.035156 L 63.824219 10.035156 L 63.824219 33.277344 L 67.726562 33.277344 L 67.726562 32.457031 L 68.875 32.457031 L 68.875 33.847656 C 68.875 34.164062 68.617188 34.421875 68.300781 34.421875 " fill-opacity="1" fill-rule="nonzero"/><path fill="#232323" d="M 84.503906 15.816406 L 81.273438 15.816406 L 81.273438 14.671875 L 84.503906 14.671875 L 84.503906 15.816406 " fill-opacity="1" fill-rule="nonzero"/><path fill="#232323" d="M 87.804688 15.816406 L 86.371094 15.816406 L 86.371094 14.671875 L 87.804688 14.671875 L 87.804688 15.816406 " fill-opacity="1" fill-rule="nonzero"/><g clip-path="url(#23b20a7b94)"><path fill="#232323" d="M 89.734375 20.09375 L 82.890625 20.09375 L 82.890625 18.945312 L 89.734375 18.945312 L 89.734375 20.09375 " fill-opacity="1" fill-rule="nonzero"/></g><path fill="#232323" d="M 85.617188 24.367188 L 82.890625 24.367188 L 82.890625 23.21875 L 85.617188 23.21875 L 85.617188 24.367188 " fill-opacity="1" fill-rule="nonzero"/><path fill="#232323" d="M 88.417969 24.367188 L 86.980469 24.367188 L 86.980469 23.21875 L 88.417969 23.21875 L 88.417969 24.367188 " fill-opacity="1" fill-rule="nonzero"/><path fill="#232323" d="M 87.699219 28.640625 L 81.273438 28.640625 L 81.273438 27.496094 L 87.699219 27.496094 L 87.699219 28.640625 " fill-opacity="1" fill-rule="nonzero"/><path fill="#232323" d="M 60.808594 15.816406 L 51.003906 15.816406 C 50.851562 15.816406 50.707031 15.757812 50.597656 15.648438 L 47.695312 12.753906 C 47.585938 12.644531 47.523438 12.5 47.523438 12.347656 L 47.523438 8.304688 L 48.675781 8.304688 L 48.675781 12.109375 L 51.242188 14.671875 L 60.808594 14.671875 L 60.808594 15.816406 " fill-opacity="1" fill-rule="nonzero"/><path fill="#232323" d="M 48.097656 38.8125 C 46.890625 38.8125 45.90625 37.832031 45.90625 36.625 C 45.90625 35.417969 46.890625 34.4375 48.097656 34.4375 C 49.308594 34.4375 50.292969 35.417969 50.292969 36.625 C 50.292969 37.832031 49.308594 38.8125 48.097656 38.8125 Z M 48.097656 35.582031 C 47.523438 35.582031 47.054688 36.050781 47.054688 36.625 C 47.054688 37.199219 47.523438 37.667969 48.097656 37.667969 C 48.675781 37.667969 49.144531 37.199219 49.144531 36.625 C 49.144531 36.050781 48.675781 35.582031 48.097656 35.582031 " fill-opacity="1" fill-rule="nonzero"/><path fill="#232323" d="M 48.675781 35.007812 L 47.523438 35.007812 L 47.523438 30.964844 C 47.523438 30.8125 47.585938 30.667969 47.695312 30.5625 L 50.597656 27.664062 C 50.707031 27.554688 50.851562 27.496094 51.003906 27.496094 L 60.808594 27.496094 L 60.808594 28.640625 L 51.242188 28.640625 L 48.675781 31.203125 L 48.675781 35.007812 " fill-opacity="1" fill-rule="nonzero"/><path fill="#232323" d="M 60.808594 22.230469 L 48.820312 22.230469 L 48.820312 21.082031 L 60.808594 21.082031 L 60.808594 22.230469 " fill-opacity="1" fill-rule="nonzero"/><path fill="#232323" d="M 60.808594 19.023438 L 52.601562 19.023438 L 52.601562 17.878906 L 60.808594 17.878906 L 60.808594 19.023438 " fill-opacity="1" fill-rule="nonzero"/><path fill="#232323" d="M 60.808594 25.433594 L 52.601562 25.433594 L 52.601562 24.289062 L 60.808594 24.289062 L 60.808594 25.433594 " fill-opacity="1" fill-rule="nonzero"/><path fill="#232323" d="M 72.617188 27.089844 L 69.414062 27.089844 C 69.097656 27.089844 68.839844 26.835938 68.839844 26.519531 L 68.839844 21.347656 C 68.839844 21.035156 69.097656 20.777344 69.414062 20.777344 L 72.617188 20.777344 C 74.363281 20.777344 75.78125 22.191406 75.78125 23.933594 C 75.78125 25.675781 74.363281 27.089844 72.617188 27.089844 Z M 69.988281 25.945312 L 72.617188 25.945312 C 73.730469 25.945312 74.632812 25.042969 74.632812 23.933594 C 74.632812 22.824219 73.730469 21.921875 72.617188 21.921875 L 69.988281 21.921875 L 69.988281 25.945312 " fill-opacity="1" fill-rule="nonzero"/><path fill="#232323" d="M 72.175781 21.921875 L 69.414062 21.921875 C 69.097656 21.921875 68.839844 21.664062 68.839844 21.347656 L 68.839844 16.792969 C 68.839844 16.476562 69.097656 16.222656 69.414062 16.222656 L 72.175781 16.222656 C 73.753906 16.222656 75.035156 17.5 75.035156 19.070312 C 75.035156 20.644531 73.753906 21.921875 72.175781 21.921875 Z M 69.988281 20.777344 L 72.175781 20.777344 C 73.121094 20.777344 73.886719 20.011719 73.886719 19.070312 C 73.886719 18.132812 73.121094 17.367188 72.175781 17.367188 L 69.988281 17.367188 L 69.988281 20.777344 " fill-opacity="1" fill-rule="nonzero"/><path fill="#232323" d="M 70.828125 28.453125 L 69.679688 28.453125 L 69.679688 26.519531 L 70.828125 26.519531 L 70.828125 28.453125 " fill-opacity="1" fill-rule="nonzero"/><path fill="#232323" d="M 72.675781 28.453125 L 71.527344 28.453125 L 71.527344 26.519531 L 72.675781 26.519531 L 72.675781 28.453125 " fill-opacity="1" fill-rule="nonzero"/><path fill="#232323" d="M 72.675781 16.792969 L 71.527344 16.792969 L 71.527344 14.859375 L 72.675781 14.859375 L 72.675781 16.792969 " fill-opacity="1" fill-rule="nonzero"/><path fill="#232323" d="M 69.414062 17.367188 L 67.835938 17.367188 C 67.519531 17.367188 67.261719 17.109375 67.261719 16.792969 C 67.261719 16.476562 67.519531 16.222656 67.835938 16.222656 L 69.414062 16.222656 C 69.730469 16.222656 69.988281 16.476562 69.988281 16.792969 C 69.988281 17.109375 69.730469 17.367188 69.414062 17.367188 " fill-opacity="1" fill-rule="nonzero"/><path fill="#232323" d="M 69.414062 27.089844 L 67.835938 27.089844 C 67.519531 27.089844 67.261719 26.835938 67.261719 26.519531 C 67.261719 26.203125 67.519531 25.945312 67.835938 25.945312 L 69.414062 25.945312 C 69.730469 25.945312 69.988281 26.203125 69.988281 26.519531 C 69.988281 26.835938 69.730469 27.089844 69.414062 27.089844 " fill-opacity="1" fill-rule="nonzero"/><path fill="#232323" d="M 70.828125 16.792969 L 69.679688 16.792969 L 69.679688 14.859375 L 70.828125 14.859375 L 70.828125 16.792969 " fill-opacity="1" fill-rule="nonzero"/><g clip-path="url(#9f21190093)"><path fill="#7ed957" d="M 79.105469 21.777344 C 79.105469 22.253906 79.058594 22.726562 78.96875 23.195312 C 78.875 23.664062 78.734375 24.117188 78.554688 24.558594 C 78.371094 25 78.148438 25.417969 77.882812 25.8125 C 77.617188 26.210938 77.316406 26.578125 76.980469 26.914062 C 76.640625 27.25 76.273438 27.550781 75.878906 27.816406 C 75.480469 28.082031 75.0625 28.304688 74.621094 28.488281 C 74.183594 28.671875 73.726562 28.808594 73.261719 28.902344 C 72.792969 28.996094 72.320312 29.042969 71.84375 29.042969 C 71.367188 29.042969 70.894531 28.996094 70.425781 28.902344 C 69.957031 28.808594 69.503906 28.671875 69.0625 28.488281 C 68.621094 28.304688 68.203125 28.082031 67.808594 27.816406 C 67.410156 27.550781 67.042969 27.25 66.707031 26.914062 C 66.371094 26.578125 66.066406 26.210938 65.804688 25.8125 C 65.539062 25.417969 65.316406 25 65.132812 24.558594 C 64.949219 24.117188 64.8125 23.664062 64.71875 23.195312 C 64.625 22.726562 64.578125 22.253906 64.578125 21.777344 C 64.578125 21.300781 64.625 20.828125 64.71875 20.359375 C 64.8125 19.894531 64.949219 19.4375 65.132812 18.996094 C 65.316406 18.558594 65.539062 18.140625 65.804688 17.742188 C 66.066406 17.34375 66.371094 16.980469 66.707031 16.640625 C 67.042969 16.304688 67.410156 16.003906 67.808594 15.738281 C 68.203125 15.472656 68.621094 15.25 69.0625 15.066406 C 69.503906 14.882812 69.957031 14.746094 70.425781 14.652344 C 70.894531 14.558594 71.367188 14.515625 71.84375 14.515625 C 72.320312 14.515625 72.792969 14.558594 73.261719 14.652344 C 73.726562 14.746094 74.183594 14.882812 74.621094 15.066406 C 75.0625 15.25 75.480469 15.472656 75.878906 15.738281 C 76.273438 16.003906 76.640625 16.304688 76.980469 16.640625 C 77.316406 16.980469 77.617188 17.34375 77.882812 17.742188 C 78.148438 18.140625 78.371094 18.558594 78.554688 18.996094 C 78.734375 19.4375 78.875 19.894531 78.96875 20.359375 C 79.058594 20.828125 79.105469 21.300781 79.105469 21.777344 Z M 79.105469 21.777344 " fill-opacity="1" fill-rule="nonzero"/></g><g clip-path="url(#32b1b2a32a)"><path fill="#232323" d="M 71.84375 29.558594 C 67.550781 29.558594 64.058594 26.070312 64.058594 21.777344 C 64.058594 17.484375 67.550781 13.996094 71.84375 13.996094 C 76.132812 13.996094 79.625 17.484375 79.625 21.777344 C 79.625 26.070312 76.132812 29.558594 71.84375 29.558594 Z M 71.84375 15.03125 C 68.125 15.03125 65.097656 18.058594 65.097656 21.777344 C 65.097656 25.496094 68.125 28.523438 71.84375 28.523438 C 75.5625 28.523438 78.589844 25.496094 78.589844 21.777344 C 78.589844 18.058594 75.5625 15.03125 71.84375 15.03125 Z M 71.84375 15.03125 " fill-opacity="1" fill-rule="nonzero"/></g><path fill="#232323" d="M 73.027344 20.519531 C 72.886719 20.519531 72.761719 20.46875 72.660156 20.367188 L 71.476562 19.179688 C 71.375 19.078125 71.324219 18.957031 71.324219 18.8125 C 71.324219 18.671875 71.375 18.546875 71.476562 18.445312 L 72.660156 17.261719 C 72.761719 17.160156 72.886719 17.109375 73.027344 17.109375 C 73.171875 17.109375 73.292969 17.160156 73.394531 17.261719 C 73.496094 17.363281 73.546875 17.484375 73.546875 17.628906 C 73.546875 17.769531 73.496094 17.890625 73.394531 17.992188 L 72.574219 18.8125 L 73.394531 19.632812 C 73.558594 19.796875 73.59375 19.984375 73.507812 20.195312 C 73.417969 20.410156 73.257812 20.515625 73.027344 20.519531 Z M 73.027344 20.519531 " fill-opacity="1" fill-rule="nonzero"/><path fill="#232323" d="M 73.324219 25.261719 C 73.183594 25.261719 73.058594 25.210938 72.957031 25.109375 C 72.855469 25.007812 72.804688 24.886719 72.804688 24.742188 C 72.804688 24.597656 72.855469 24.476562 72.957031 24.375 C 73.058594 24.273438 73.183594 24.222656 73.324219 24.222656 C 73.609375 24.222656 73.882812 24.167969 74.148438 24.058594 C 74.410156 23.949219 74.644531 23.796875 74.84375 23.59375 C 75.046875 23.390625 75.199219 23.160156 75.308594 22.898438 C 75.417969 22.632812 75.472656 22.359375 75.476562 22.074219 L 75.476562 21.484375 C 75.472656 21.199219 75.417969 20.925781 75.308594 20.664062 C 75.199219 20.398438 75.046875 20.167969 74.84375 19.964844 C 74.644531 19.765625 74.410156 19.609375 74.148438 19.5 C 73.882812 19.390625 73.609375 19.335938 73.324219 19.335938 L 71.84375 19.335938 C 71.699219 19.335938 71.578125 19.285156 71.476562 19.183594 C 71.375 19.082031 71.324219 18.960938 71.324219 18.816406 C 71.324219 18.671875 71.375 18.550781 71.476562 18.449219 C 71.578125 18.347656 71.699219 18.296875 71.84375 18.296875 L 73.324219 18.296875 C 73.746094 18.296875 74.152344 18.378906 74.542969 18.542969 C 74.933594 18.703125 75.277344 18.933594 75.578125 19.230469 C 75.875 19.53125 76.105469 19.875 76.269531 20.261719 C 76.429688 20.652344 76.511719 21.058594 76.511719 21.480469 L 76.511719 22.074219 C 76.511719 22.496094 76.429688 22.902344 76.269531 23.292969 C 76.109375 23.683594 75.878906 24.027344 75.578125 24.328125 C 75.28125 24.625 74.933594 24.855469 74.542969 25.019531 C 74.15625 25.179688 73.746094 25.261719 73.324219 25.261719 Z M 73.324219 25.261719 " fill-opacity="1" fill-rule="nonzero"/><path fill="#232323" d="M 70.65625 26.449219 C 70.425781 26.445312 70.265625 26.339844 70.179688 26.128906 C 70.089844 25.914062 70.128906 25.726562 70.292969 25.5625 L 71.109375 24.742188 L 70.292969 23.921875 C 70.191406 23.824219 70.140625 23.699219 70.140625 23.558594 C 70.140625 23.414062 70.191406 23.292969 70.289062 23.191406 C 70.390625 23.089844 70.515625 23.039062 70.65625 23.039062 C 70.800781 23.039062 70.921875 23.089844 71.023438 23.191406 L 72.210938 24.375 C 72.3125 24.476562 72.363281 24.597656 72.363281 24.742188 C 72.363281 24.886719 72.3125 25.007812 72.210938 25.109375 L 71.023438 26.296875 C 70.921875 26.398438 70.800781 26.449219 70.65625 26.449219 Z M 70.65625 26.449219 " fill-opacity="1" fill-rule="nonzero"/><path fill="#232323" d="M 71.84375 25.261719 L 70.359375 25.261719 C 69.9375 25.261719 69.53125 25.179688 69.140625 25.019531 C 68.75 24.855469 68.40625 24.625 68.109375 24.328125 C 67.808594 24.027344 67.578125 23.683594 67.417969 23.292969 C 67.253906 22.902344 67.171875 22.496094 67.171875 22.074219 L 67.171875 21.484375 C 67.171875 21.058594 67.253906 20.652344 67.417969 20.261719 C 67.578125 19.871094 67.808594 19.527344 68.109375 19.230469 C 68.40625 18.929688 68.75 18.699219 69.140625 18.539062 C 69.53125 18.375 69.9375 18.292969 70.359375 18.292969 C 70.503906 18.292969 70.625 18.34375 70.726562 18.445312 C 70.828125 18.546875 70.878906 18.667969 70.878906 18.8125 C 70.878906 18.957031 70.828125 19.078125 70.726562 19.179688 C 70.625 19.28125 70.503906 19.332031 70.359375 19.332031 C 70.074219 19.332031 69.800781 19.386719 69.539062 19.496094 C 69.277344 19.605469 69.042969 19.761719 68.84375 19.960938 C 68.640625 20.164062 68.484375 20.394531 68.378906 20.660156 C 68.269531 20.921875 68.214844 21.195312 68.210938 21.480469 L 68.210938 22.070312 C 68.214844 22.355469 68.269531 22.628906 68.378906 22.894531 C 68.484375 23.15625 68.640625 23.386719 68.84375 23.589844 C 69.042969 23.789062 69.277344 23.945312 69.539062 24.054688 C 69.800781 24.164062 70.074219 24.21875 70.359375 24.21875 L 71.84375 24.21875 C 71.984375 24.21875 72.109375 24.269531 72.210938 24.371094 C 72.3125 24.472656 72.363281 24.59375 72.363281 24.738281 C 72.363281 24.882812 72.3125 25.003906 72.210938 25.105469 C 72.109375 25.207031 71.984375 25.257812 71.84375 25.257812 Z M 71.84375 25.261719 " fill-opacity="1" fill-rule="nonzero"/><g fill="#232323" fill-opacity="1"><g transform="translate(21.809629, 55.657731)"><g><path d="M 10.734375 -1.375 C 10.492188 -1.144531 10.164062 -0.910156 9.75 -0.671875 C 9.34375 -0.441406 8.867188 -0.25 8.328125 -0.09375 C 7.796875 0.0625 7.234375 0.140625 6.640625 0.140625 C 5.890625 0.140625 5.191406 0.0195312 4.546875 -0.21875 C 3.910156 -0.457031 3.347656 -0.800781 2.859375 -1.25 C 2.378906 -1.695312 2.003906 -2.234375 1.734375 -2.859375 C 1.460938 -3.492188 1.328125 -4.203125 1.328125 -4.984375 C 1.328125 -5.710938 1.46875 -6.382812 1.75 -7 C 2.039062 -7.625 2.429688 -8.164062 2.921875 -8.625 C 3.421875 -9.082031 3.992188 -9.4375 4.640625 -9.6875 C 5.285156 -9.9375 5.972656 -10.0625 6.703125 -10.0625 C 7.296875 -10.0625 7.859375 -9.976562 8.390625 -9.8125 C 8.929688 -9.644531 9.410156 -9.429688 9.828125 -9.171875 C 10.253906 -8.921875 10.597656 -8.648438 10.859375 -8.359375 L 9.890625 -7.171875 C 9.441406 -7.566406 8.945312 -7.890625 8.40625 -8.140625 C 7.875 -8.398438 7.273438 -8.53125 6.609375 -8.53125 C 6.140625 -8.53125 5.679688 -8.445312 5.234375 -8.28125 C 4.796875 -8.125 4.398438 -7.890625 4.046875 -7.578125 C 3.691406 -7.273438 3.410156 -6.90625 3.203125 -6.46875 C 2.992188 -6.03125 2.890625 -5.535156 2.890625 -4.984375 C 2.890625 -4.191406 3.070312 -3.523438 3.4375 -2.984375 C 3.8125 -2.453125 4.296875 -2.050781 4.890625 -1.78125 C 5.484375 -1.507812 6.125 -1.375 6.8125 -1.375 C 7.289062 -1.375 7.722656 -1.4375 8.109375 -1.5625 C 8.503906 -1.695312 8.859375 -1.859375 9.171875 -2.046875 C 9.484375 -2.242188 9.75 -2.441406 9.96875 -2.640625 Z M 10.734375 -1.375 "/></g></g></g><g fill="#232323" fill-opacity="1"><g transform="translate(33.895925, 55.657731)"><g><path d="M 10.40625 -6.859375 C 10.40625 -6.203125 10.195312 -5.601562 9.78125 -5.0625 C 9.375 -4.53125 8.859375 -4.148438 8.234375 -3.921875 L 10.90625 0.015625 L 9 0 L 6.515625 -3.703125 L 3.609375 -3.703125 L 3.609375 0 L 2.0625 0 L 2.0625 -9.96875 L 7.203125 -9.96875 C 7.753906 -9.96875 8.269531 -9.832031 8.75 -9.5625 C 9.238281 -9.300781 9.632812 -8.9375 9.9375 -8.46875 C 10.25 -8.007812 10.40625 -7.472656 10.40625 -6.859375 Z M 6.84375 -8.5 L 3.609375 -8.5 L 3.609375 -5.1875 L 7.03125 -5.1875 C 7.363281 -5.1875 7.660156 -5.265625 7.921875 -5.421875 C 8.191406 -5.578125 8.40625 -5.78125 8.5625 -6.03125 C 8.71875 -6.289062 8.796875 -6.570312 8.796875 -6.875 C 8.796875 -7.1875 8.703125 -7.460938 8.515625 -7.703125 C 8.335938 -7.953125 8.101562 -8.144531 7.8125 -8.28125 C 7.519531 -8.425781 7.195312 -8.5 6.84375 -8.5 Z M 6.84375 -8.5 "/></g></g></g><g fill="#232323" fill-opacity="1"><g transform="translate(46.32429, 55.657731)"><g><path d="M 11.09375 -9.96875 L 6.8125 -4.09375 L 6.8125 0 L 5.265625 0 L 5.265625 -4.03125 L 0.703125 -9.96875 L 2.703125 -9.96875 L 6.078125 -5.453125 L 9.25 -9.96875 Z M 11.09375 -9.96875 "/></g></g></g><g fill="#232323" fill-opacity="1"><g transform="translate(58.125534, 55.657731)"><g><path d="M 7.109375 -9.96875 C 7.679688 -9.96875 8.203125 -9.832031 8.671875 -9.5625 C 9.140625 -9.289062 9.515625 -8.925781 9.796875 -8.46875 C 10.078125 -8.007812 10.21875 -7.488281 10.21875 -6.90625 C 10.21875 -6.320312 10.066406 -5.789062 9.765625 -5.3125 C 9.472656 -4.832031 9.078125 -4.445312 8.578125 -4.15625 C 8.085938 -3.875 7.546875 -3.734375 6.953125 -3.734375 L 3.609375 -3.734375 L 3.609375 0 L 2.0625 0 L 2.0625 -9.96875 Z M 6.875 -5.21875 C 7.1875 -5.21875 7.472656 -5.296875 7.734375 -5.453125 C 8.003906 -5.609375 8.21875 -5.8125 8.375 -6.0625 C 8.53125 -6.320312 8.609375 -6.601562 8.609375 -6.90625 C 8.609375 -7.207031 8.53125 -7.472656 8.375 -7.703125 C 8.21875 -7.941406 8.003906 -8.132812 7.734375 -8.28125 C 7.472656 -8.425781 7.1875 -8.5 6.875 -8.5 L 3.609375 -8.5 L 3.609375 -5.21875 Z M 6.875 -5.21875 "/></g></g></g><g fill="#232323" fill-opacity="1"><g transform="translate(69.712985, 55.657731)"><g><path d="M 4.375 0 L 4.375 -8.5 L 1.015625 -8.5 L 1.015625 -9.96875 L 9.34375 -9.96875 L 9.34375 -8.5 L 5.90625 -8.5 L 5.90625 0 Z M 4.375 0 "/></g></g></g><g fill="#232323" fill-opacity="1"><g transform="translate(80.074707, 55.657731)"><g><path d="M 12.375 -4.984375 C 12.375 -4.265625 12.238281 -3.59375 11.96875 -2.96875 C 11.695312 -2.34375 11.3125 -1.796875 10.8125 -1.328125 C 10.320312 -0.867188 9.738281 -0.507812 9.0625 -0.25 C 8.382812 0.0078125 7.648438 0.140625 6.859375 0.140625 C 6.035156 0.140625 5.285156 0.0078125 4.609375 -0.25 C 3.941406 -0.507812 3.363281 -0.867188 2.875 -1.328125 C 2.382812 -1.796875 2.003906 -2.34375 1.734375 -2.96875 C 1.460938 -3.59375 1.328125 -4.265625 1.328125 -4.984375 C 1.328125 -5.710938 1.460938 -6.382812 1.734375 -7 C 2.003906 -7.625 2.382812 -8.164062 2.875 -8.625 C 3.363281 -9.09375 3.941406 -9.457031 4.609375 -9.71875 C 5.285156 -9.988281 6.035156 -10.125 6.859375 -10.125 C 7.648438 -10.125 8.382812 -9.988281 9.0625 -9.71875 C 9.738281 -9.457031 10.320312 -9.09375 10.8125 -8.625 C 11.3125 -8.164062 11.695312 -7.625 11.96875 -7 C 12.238281 -6.382812 12.375 -5.710938 12.375 -4.984375 Z M 10.796875 -4.984375 C 10.796875 -5.679688 10.628906 -6.300781 10.296875 -6.84375 C 9.960938 -7.394531 9.5 -7.828125 8.90625 -8.140625 C 8.3125 -8.460938 7.628906 -8.625 6.859375 -8.625 C 6.066406 -8.625 5.375 -8.460938 4.78125 -8.140625 C 4.1875 -7.828125 3.722656 -7.394531 3.390625 -6.84375 C 3.054688 -6.300781 2.890625 -5.679688 2.890625 -4.984375 C 2.890625 -4.296875 3.054688 -3.675781 3.390625 -3.125 C 3.722656 -2.582031 4.1875 -2.148438 4.78125 -1.828125 C 5.375 -1.515625 6.066406 -1.359375 6.859375 -1.359375 C 7.628906 -1.359375 8.3125 -1.515625 8.90625 -1.828125 C 9.5 -2.148438 9.960938 -2.585938 10.296875 -3.140625 C 10.628906 -3.691406 10.796875 -4.304688 10.796875 -4.984375 Z M 10.796875 -4.984375 "/></g></g></g><g fill="#232323" fill-opacity="1"><g transform="translate(93.771563, 55.657731)"><g><path d="M 1.328125 -3.390625 L 1.328125 -4.796875 L 6 -4.796875 L 6 -3.390625 Z M 1.328125 -3.390625 "/></g></g></g><g fill="#232323" fill-opacity="1"><g transform="translate(101.097458, 55.657731)"><g><path d="M 0.890625 0 L 4.953125 -5.09375 L 0.953125 -9.96875 L 3 -9.96875 L 6.09375 -6.046875 L 9 -9.96875 L 10.9375 -9.96875 L 7 -4.953125 L 11.09375 0 L 9.046875 0 L 5.875 -3.96875 L 2.8125 0 Z M 0.890625 0 "/></g></g></g></svg>